<svg width="32" height="32" viewBox="0 0 32 32" fill="none" xmlns="http://www.w3.org/2000/svg">
	<rect width="32" height="32" rx="7" fill="#E0EAFF" />
	<path
		d="M24.9752 16.1852L24.2361 16.0574L24.9752 16.1852ZM24.2696 20.265L23.5306 20.1371L24.2696 20.265ZM10.9378 24.4771L10.1906 24.5417L10.9378 24.4771ZM10.1256 15.0844L10.8728 15.0198L10.1256 15.0844ZM17.995 9.22142L18.7351 9.34269V9.34269L17.995 9.22142ZM17.3323 13.266L18.0724 13.3872V13.3872L17.3323 13.266ZM10.6981 13.6775L10.2085 13.1093H10.2085L10.6981 13.6775ZM12.1369 12.4377L12.6265 13.0058H12.6265L12.1369 12.4377ZM14.5181 8.78374L13.7921 8.59542L14.5181 8.78374ZM14.9938 6.94989L15.7197 7.13821V7.13821L14.9938 6.94989ZM16.6676 6.06435L16.4382 6.77841L16.4382 6.77841L16.6676 6.06435ZM16.8126 6.11093L17.042 5.39687L17.042 5.39687L16.8126 6.11093ZM13.8619 10.4626L14.5235 10.816V10.816L13.8619 10.4626ZM17.9047 7.24752L17.1787 7.43584V7.43584L17.9047 7.24752ZM15.6742 6.13239L15.3486 5.45675V5.45675L15.6742 6.13239ZM7.9716 25.4707L7.22439 25.5353L7.9716 25.4707ZM7 14.2342L7.74721 14.1696C7.71261 13.7694 7.36893 13.4676 6.96767 13.4849C6.5664 13.5022 6.25 13.8326 6.25 14.2342H7ZM24.2361 16.0574L23.5306 20.1371L25.0087 20.3928L25.7142 16.313L24.2361 16.0574ZM17.245 25.25H12.5963V26.75H17.245V25.25ZM11.685 24.4125L10.8728 15.0198L9.3784 15.149L10.1906 24.5417L11.685 24.4125ZM23.5306 20.1371C23.0238 23.0677 20.3813 25.25 17.245 25.25V26.75C21.0712 26.75 24.3708 24.081 25.0087 20.3928L23.5306 20.1371ZM17.2548 9.10015L16.5921 13.1447L18.0724 13.3872L18.7351 9.34269L17.2548 9.10015ZM11.1877 14.2456L12.6265 13.0058L11.6473 11.8695L10.2085 13.1093L11.1877 14.2456ZM15.244 8.97206L15.7197 7.13821L14.2678 6.76157L13.7921 8.59542L15.244 8.97206ZM16.4382 6.77841L16.5832 6.82498L17.042 5.39687L16.897 5.3503L16.4382 6.77841ZM14.5235 10.816C14.8354 10.232 15.0777 9.61339 15.244 8.97206L13.7921 8.59542C13.6557 9.12107 13.457 9.62893 13.2004 10.1092L14.5235 10.816ZM16.5832 6.82498C16.8896 6.92342 17.1072 7.16009 17.1787 7.43584L18.6307 7.05921C18.4252 6.26719 17.819 5.64648 17.042 5.39687L16.5832 6.82498ZM15.7197 7.13821C15.7548 7.0032 15.8523 6.87913 15.9998 6.80804L15.3486 5.45675C14.8166 5.71309 14.417 6.18627 14.2678 6.76157L15.7197 7.13821ZM15.9998 6.80804C16.1345 6.74311 16.2931 6.73181 16.4382 6.77841L16.897 5.3503C16.3873 5.18655 15.8312 5.2242 15.3486 5.45675L15.9998 6.80804ZM18.1537 14.9842H23.3348V13.4842H18.1537V14.9842ZM8.71881 25.4061L7.74721 14.1696L6.25279 14.2988L7.22439 25.5353L8.71881 25.4061ZM7.75 25.5127V14.2342H6.25V25.5127H7.75ZM7.22439 25.5353C7.2112 25.3828 7.33146 25.25 7.48671 25.25V26.75C8.21268 26.75 8.78122 26.1279 8.71881 25.4061L7.22439 25.5353ZM18.7351 9.34269C18.8596 8.58256 18.8241 7.80477 18.6307 7.0592L17.1787 7.43584C17.3197 7.97923 17.3456 8.54613 17.2548 9.10016L18.7351 9.34269ZM12.5963 25.25C12.1224 25.25 11.726 24.887 11.685 24.4125L10.1906 24.5417C10.2985 25.7902 11.3427 26.75 12.5963 26.75V25.25ZM12.6265 13.0058C13.3063 12.42 14.0392 11.7227 14.5235 10.816L13.2004 10.1092C12.854 10.7577 12.3025 11.3049 11.6473 11.8695L12.6265 13.0058ZM25.7142 16.313C25.9695 14.8365 24.8341 13.4842 23.3348 13.4842V14.9842C23.9014 14.9842 24.3332 15.4959 24.2361 16.0574L25.7142 16.313ZM7.48671 25.25C7.63292 25.25 7.75 25.3684 7.75 25.5127H6.25C6.25 26.1953 6.80289 26.75 7.48671 26.75V25.25ZM16.5921 13.1447C16.4344 14.1076 17.1766 14.9842 18.1537 14.9842V13.4842C18.1038 13.4842 18.0639 13.439 18.0724 13.3872L16.5921 13.1447ZM10.8728 15.0198C10.8474 14.7258 10.9647 14.4378 11.1877 14.2456L10.2085 13.1093C9.62022 13.6163 9.31149 14.3753 9.3784 15.149L10.8728 15.0198Z"
		fill="#4DA7FF" />
</svg>