<svg width="32" height="32" viewBox="0 0 32 32" fill="none" xmlns="http://www.w3.org/2000/svg">
	<rect width="32" height="32" rx="7" fill="#E0EAFF" />
	<g clip-path="url(#clip0_1943_5554)">
		<path
			d="M11.033 12.4765C8.9833 12.9403 7.95843 13.1722 7.7146 13.9563C7.47077 14.7404 8.16946 15.5574 9.56683 17.1914L9.92835 17.6142C10.3254 18.0785 10.524 18.3107 10.6133 18.5979C10.7026 18.8852 10.6726 19.1949 10.6126 19.8145L10.5579 20.3785C10.3466 22.5587 10.241 23.6488 10.8794 24.1334C11.5177 24.6179 12.4773 24.1761 14.3965 23.2925L14.893 23.0639C15.4384 22.8128 15.711 22.6872 16.0001 22.6872C16.2891 22.6872 16.5618 22.8128 17.1072 23.0639L17.6037 23.2925C19.5229 24.1761 20.4824 24.6179 21.1208 24.1334C21.7591 23.6488 21.6535 22.5587 21.4423 20.3785M22.4333 17.1914C23.8307 15.5574 24.5294 14.7404 24.2856 13.9563C24.0417 13.1722 23.0169 12.9403 20.9671 12.4765L20.4368 12.3565C19.8544 12.2248 19.5631 12.1589 19.3293 11.9813C19.0955 11.8038 18.9455 11.5348 18.6455 10.9967L18.3724 10.5068C17.3169 8.61327 16.7891 7.6665 16.0001 7.6665C15.211 7.6665 14.6833 8.61328 13.6277 10.5068"
			stroke="#4DA7FF" stroke-width="1.5" stroke-linecap="round" />
	</g>
	<defs>
		<clipPath id="clip0_1943_5554">
			<rect x="6" y="6" width="20" height="20" rx="5" fill="white" />
		</clipPath>
	</defs>
</svg>