<svg width="32" height="32" viewBox="0 0 32 32" fill="none" xmlns="http://www.w3.org/2000/svg">
	<rect width="32" height="32" rx="7" fill="#E0EAFF" />
	<path d="M18 6C18 6 20.2 6.2 23 9C25.8 11.8 26 14 26 14" stroke="#4DA7FF" stroke-width="1.5"
		stroke-linecap="round" />
	<path
		d="M18.207 9.53564C18.207 9.53564 19.197 9.81849 20.6819 11.3034C22.1668 12.7883 22.4497 13.7783 22.4497 13.7783"
		stroke="#4DA7FF" stroke-width="1.5" stroke-linecap="round" />
	<path
		d="M8.00655 11.9331C7.93421 13.8412 8.41713 17.0817 11.6677 20.3323C12.4519 21.1165 13.2355 21.7396 14 22.2327M9.53781 8.93723C10.9308 7.54428 13.1532 7.73144 14.0376 9.31617L14.6866 10.4791C15.2723 11.5286 15.0372 12.9053 14.1147 13.8278C14.1147 13.8278 14.1147 13.8278 14.1147 13.8278C14.1146 13.8279 12.9959 14.9468 15.0245 16.9755C17.0525 19.0035 18.1714 17.8861 18.1722 17.8853C18.1722 17.8853 18.1722 17.8853 18.1722 17.8853C19.0947 16.9628 20.4714 16.7277 21.5209 17.3134L22.6838 17.9624C24.2686 18.8468 24.4557 21.0692 23.0628 22.4622C22.2258 23.2992 21.2004 23.9505 20.0669 23.9934C19.2529 24.0243 18.1963 23.9541 17 23.6111"
		stroke="#4DA7FF" stroke-width="1.5" stroke-linecap="round" />
</svg>