<svg width="244" height="16" viewBox="0 0 244 16" fill="none" xmlns="http://www.w3.org/2000/svg">
	<path
		d="M243.207 8.70711C243.598 8.31658 243.598 7.68342 243.207 7.29289L236.843 0.928932C236.453 0.538408 235.819 0.538408 235.429 0.928932C235.038 1.31946 235.038 1.95262 235.429 2.34315L241.086 8L235.429 13.6569C235.038 14.0474 235.038 14.6805 235.429 15.0711C235.819 15.4616 236.453 15.4616 236.843 15.0711L243.207 8.70711ZM0 9H1.51562V7H0V9ZM4.54688 9H7.57812V7H4.54688V9ZM10.6094 9H13.6406V7H10.6094V9ZM16.6719 9H19.7031V7H16.6719V9ZM22.7344 9H25.7656V7H22.7344V9ZM28.7969 9H31.8281V7H28.7969V9ZM34.8594 9H37.8906V7H34.8594V9ZM40.9219 9H43.9531V7H40.9219V9ZM46.9844 9H50.0156V7H46.9844V9ZM53.0469 9H56.0781V7H53.0469V9ZM59.1094 9H62.1406V7H59.1094V9ZM65.1719 9H68.2031V7H65.1719V9ZM71.2344 9H74.2656V7H71.2344V9ZM77.2969 9H80.3281V7H77.2969V9ZM83.3594 9H86.3906V7H83.3594V9ZM89.4219 9H92.4531V7H89.4219V9ZM95.4844 9H98.5156V7H95.4844V9ZM101.547 9H104.578V7H101.547V9ZM107.609 9H110.641V7H107.609V9ZM113.672 9H116.703V7H113.672V9ZM119.734 9H122.766V7H119.734V9ZM125.797 9H128.828V7H125.797V9ZM131.859 9H134.891V7H131.859V9ZM137.922 9H140.953V7H137.922V9ZM143.984 9H147.016V7H143.984V9ZM150.047 9H153.078V7H150.047V9ZM156.109 9H159.141V7H156.109V9ZM162.172 9H165.203V7H162.172V9ZM168.234 9H171.266V7H168.234V9ZM174.297 9H177.328V7H174.297V9ZM180.359 9H183.391V7H180.359V9ZM186.422 9H189.453V7H186.422V9ZM192.484 9H195.516V7H192.484V9ZM198.547 9H201.578V7H198.547V9ZM204.609 9H207.641V7H204.609V9ZM210.672 9H213.703V7H210.672V9ZM216.734 9H219.766V7H216.734V9ZM222.797 9H225.828V7H222.797V9ZM228.859 9H231.891V7H228.859V9ZM234.922 9H237.953V7H234.922V9ZM240.984 9H242.5V7H240.984V9Z"
		fill="#4DA7FF" />
</svg>