<svg width="28" height="24" viewBox="0 0 28 24" fill="none" xmlns="http://www.w3.org/2000/svg">
	<g clip-path="url(#clip0_2345_5634)">
		<path
			d="M14 12C17.8605 12 21 9.42113 21 6.25C21 3.07887 17.8605 0.5 14 0.5C10.1395 0.5 7 3.07887 7 6.25C7 9.42113 10.1395 12 14 12ZM14 3.375C15.9303 3.375 17.5 4.66444 17.5 6.25C17.5 7.83556 15.9303 9.125 14 9.125C12.0697 9.125 10.5 7.83556 10.5 6.25C10.5 4.66444 12.0697 3.375 14 3.375Z"
			fill="white" />
		<path
			d="M23.2819 11.8404C23.1195 11.7068 22.9267 11.6008 22.7144 11.5285C22.5021 11.4562 22.2745 11.4189 22.0446 11.4189C21.8148 11.4189 21.5872 11.4562 21.3749 11.5285C21.1626 11.6008 20.9698 11.7068 20.8074 11.8404C19.0005 13.3207 16.5527 14.1519 14.0008 14.1519C11.4488 14.1519 9.00106 13.3207 7.19415 11.8404C6.86578 11.5709 6.4205 11.4195 5.95628 11.4197C5.49206 11.4198 5.04691 11.5714 4.71877 11.8411C4.39063 12.1109 4.20638 12.4766 4.20654 12.858C4.20671 13.2393 4.39128 13.6049 4.71965 13.8745C6.81375 15.595 9.55828 16.6788 12.5019 16.9479L7.51265 21.0462C7.35017 21.1796 7.22129 21.3381 7.13335 21.5125C7.04542 21.6868 7.00016 21.8737 7.00016 22.0625C7.00016 22.4437 7.18451 22.8093 7.51265 23.0788C7.84079 23.3483 8.28584 23.4998 8.7499 23.4998C9.21396 23.4998 9.65901 23.3483 9.98715 23.0788L13.9999 19.7826L18.0126 23.0788C18.1748 23.2128 18.3676 23.3191 18.5799 23.3916C18.7922 23.4641 19.0199 23.5015 19.2499 23.5015C19.4799 23.5015 19.7076 23.4641 19.9199 23.3916C20.1322 23.3191 20.325 23.2128 20.4871 23.0788C20.6498 22.9454 20.7788 22.787 20.8669 22.6126C20.9549 22.4382 21.0002 22.2513 21.0002 22.0625C21.0002 21.8737 20.9549 21.6868 20.8669 21.5124C20.7788 21.338 20.6498 21.1796 20.4871 21.0462L15.4979 16.9479C18.4415 16.6788 21.186 15.595 23.2801 13.8745C23.6086 13.6049 23.7932 13.2392 23.7936 12.8578C23.7939 12.4763 23.6098 12.1104 23.2819 11.8404Z"
			fill="white" />
	</g>
	<defs>
		<clipPath id="clip0_2345_5634">
			<rect width="28" height="23" fill="white" transform="translate(0 0.5)" />
		</clipPath>
	</defs>
</svg>