<svg width="26" height="22" viewBox="0 0 26 22" fill="none" xmlns="http://www.w3.org/2000/svg">
	<path
		d="M26 2.63575C25.0228 3.07638 23.9895 3.36767 22.932 3.50055C24.0476 2.80779 24.8837 1.71796 25.285 0.433211C24.2366 1.0819 23.089 1.53893 21.892 1.78446C21.0919 0.882599 20.0265 0.282272 18.8628 0.0776316C17.699 -0.127008 16.5029 0.0756142 15.4619 0.653721C14.4209 1.23183 13.594 2.15272 13.1108 3.27197C12.6276 4.39121 12.5155 5.64551 12.792 6.83813C10.6723 6.72669 8.59877 6.15299 6.70625 5.15429C4.81373 4.15559 3.1445 2.75424 1.807 1.04127C1.33788 1.89279 1.09137 2.85711 1.092 3.83836C1.09034 4.74962 1.30548 5.64717 1.71828 6.45109C2.13108 7.25501 2.72872 7.94036 3.458 8.44612C2.61037 8.42215 1.78085 8.18573 1.04 7.75698V7.82455C1.04635 9.10133 1.47679 10.3366 2.25851 11.3215C3.04023 12.3064 4.12523 12.9804 5.33 13.2295C4.86623 13.3762 4.38474 13.4536 3.9 13.4593C3.56446 13.4552 3.22975 13.4236 2.899 13.3647C3.24208 14.463 3.90601 15.4228 4.7984 16.1106C5.69079 16.7984 6.76725 17.18 7.878 17.2022C6.00236 18.7362 3.68665 19.5735 1.3 19.5804C0.865456 19.5819 0.431256 19.5548 0 19.4993C2.43676 21.1347 5.27646 22.0028 8.177 21.9992C10.1786 22.0208 12.1643 21.6276 14.0181 20.8426C15.8718 20.0576 17.5565 18.8965 18.9738 17.4272C20.391 15.9579 21.5124 14.2097 22.2723 12.2849C23.0323 10.3601 23.4157 8.29712 23.4 6.21656C23.4 5.98685 23.4 5.74362 23.4 5.5004C24.4201 4.70966 25.2999 3.74029 26 2.63575Z"
		fill="white" />
</svg>