<svg width="28" height="22" viewBox="0 0 28 22" fill="none" xmlns="http://www.w3.org/2000/svg">
	<path fill-rule="evenodd" clip-rule="evenodd"
		d="M5 1.02499C5 0.885752 4.94732 0.752219 4.85355 0.653765C4.75979 0.555311 4.63261 0.5 4.5 0.5H0.5C0.367392 0.5 0.240215 0.555311 0.146447 0.653765C0.0526785 0.752219 3.68238e-09 0.885752 3.68238e-09 1.02499C3.68238e-09 1.02499 -0.00149989 6.10896 1.91 11.1929C3.85 16.3536 7.74 21.4995 15.5 21.4995C15.6326 21.4995 15.7598 21.4442 15.8536 21.3457C15.9473 21.2473 16 21.1137 16 20.9745V13.6425C19.7525 13.9024 22.754 17.0639 22.986 21.0076C22.9939 21.1409 23.0499 21.2661 23.1426 21.3576C23.2353 21.449 23.3578 21.5 23.485 21.5H27.5C27.6326 21.5 27.7598 21.4447 27.8536 21.3462C27.9473 21.2478 28 21.1142 28 20.975C28 16.8329 26.01 13.1753 22.98 11.0003C26.01 8.82472 28 5.16661 28 1.02499C28 0.885752 27.9473 0.752219 27.8536 0.653765C27.7598 0.555311 27.6326 0.5 27.5 0.5H23.485C23.3578 0.500002 23.2355 0.55087 23.1428 0.642253C23.0501 0.733636 22.994 0.85867 22.986 0.991913C22.754 4.93614 19.7525 8.09761 16 8.358V1.02499C16 0.885752 15.9473 0.752219 15.8536 0.653765C15.7598 0.555311 15.6326 0.5 15.5 0.5H11.5C11.3674 0.5 11.2402 0.555311 11.1464 0.653765C11.0527 0.752219 11 0.885752 11 1.02499V13.9922C10.1935 13.7003 8.674 12.9238 7.373 10.9724C6.07 9.01529 5 5.91471 5 1.02499Z"
		fill="white" />
</svg>