<svg width="34" height="32" viewBox="0 0 34 32" fill="none" xmlns="http://www.w3.org/2000/svg">
	<path
		d="M22.8281 12.501C23.6101 11.788 24.3864 10.1243 21.1281 12.1445C18.0843 14.0544 15.0199 15.9369 11.9353 17.7917C11.4656 17.9853 10.9578 18.0904 10.4425 18.1006C9.92708 18.1108 9.41475 18.0259 8.93626 17.8511C6.98126 17.3163 4.69901 16.6033 4.69901 16.6033C4.69901 16.6033 3.14067 15.7108 5.80826 14.7601C5.80826 14.7601 17.0863 10.5402 20.9978 9.05353C22.4966 8.45936 27.581 6.55803 27.581 6.55803C27.581 6.55803 29.9284 5.7249 29.7329 7.74636C29.6678 8.5782 29.1464 11.4922 28.6251 14.6413C27.8417 19.0988 26.9945 23.9736 26.9945 23.9736C26.9945 23.9736 26.8642 25.3402 25.7563 25.5778C24.5704 25.5595 23.4246 25.1834 22.498 24.5083C22.2373 24.3301 17.6091 21.655 15.9133 20.3479C15.7408 20.2413 15.6007 20.0967 15.506 19.9275C15.4112 19.7584 15.3649 19.5701 15.3714 19.3802C15.3779 19.1903 15.437 19.005 15.5432 18.8416C15.6493 18.6781 15.7991 18.5418 15.9785 18.4452C18.3043 16.5051 20.588 14.5233 22.8281 12.501Z"
		fill="white" />
</svg>