<?xml version="1.0" encoding="utf-8"?>
<!-- Generator: Adobe Illustrator 25.4.1, SVG Export Plug-In . SVG Version: 6.00 Build 0)  -->
<svg version="1.1" id="Layer_1" xmlns="http://www.w3.org/2000/svg" xmlns:xlink="http://www.w3.org/1999/xlink" x="0px" y="0px"
	 viewBox="0 0 1901 257.4" style="enable-background:new 0 0 1901 257.4;" xml:space="preserve">
<style type="text/css">
	.st0{fill:#242B66;}
</style>
<g id="Layer_2_00000072965074344259308000000017161742729262731655_">
	<g>
		<path class="st0" d="M188.7,59.1c-12.5,12.5-24.8,24.8-37.4,37.4c-15.2-15.3-30.6-30.8-46.7-47C93.4,60.8,82.9,71.2,72.5,81.7
			c-4.9,4.9-13.6,13.3-18.2,18.6l2.8,3c15.3,15.8,31,31.3,46.7,47c15.8-15.9,31.3-31.4,47.2-47.4c12.8,12.8,26.1,25.7,37.7,37.9
			c0.1,0.3,0.3,0.4,0.3,0.4c-14.2,27.4-39.2,49.9-69.2,55.5C58.7,208.2,3.5,160.2,5.5,98C6.9,55.3,38,17.4,79.6,7.8
			c43.1-10,87.2,9.7,107.6,48C187.8,57,188.3,58.3,188.7,59.1z"/>
		<path class="st0" d="M172.2,253.9c-49.5,0-100.5,0-149.9,0c0-11.4,0-22.4,0-33.7c49.4,0,100.4,0,149.9,0
			C172.2,231.2,172.2,242.2,172.2,253.9z"/>
	</g>
</g>
<g>
	<path class="st0" d="M369.2,221.8h-56L253.8,43.4h51.5L341,166.2l36-122.8h51.5L369.2,221.8z"/>
	<path class="st0" d="M503.1,225.6c-19.1,0-35.1-3.9-47.9-11.7c-12.9-7.8-21.9-18.7-27.2-32.6l40.2-22.7
		c6.8,15.8,18.9,23.7,36.3,23.7c14.4,0,21.5-4,21.5-12c0-5.1-4.1-9.3-12.3-12.7c-2.8-1-10.5-3.3-23.1-6.9
		c-17.9-4.9-31.4-11.8-40.7-20.6c-9.3-8.8-13.9-20.6-13.9-35.2c0-16.5,6-29.8,18.1-40c12.4-10.2,27.7-15.3,45.7-15.3
		c15.4,0,29.1,3.5,41,10.6c11.9,7.1,21,17.1,27.3,30.2l-39.4,22.4c-5.8-13.2-15.3-19.9-28.6-19.9c-5.4,0-9.6,1.1-12.6,3.2
		c-3,2.1-4.5,5-4.5,8.5c0,3.9,2.1,7.2,6.4,9.9c4.3,2.7,12.7,5.9,25.1,9.4c9.3,2.7,16.5,5.1,21.5,7.1c5.8,2.4,11.7,5.6,17.9,9.7
		c12.8,8.2,19.2,21.1,19.2,39c0,17.5-6.4,31.2-19.2,41C541.1,220.7,524.2,225.6,503.1,225.6z"/>
	<path class="st0" d="M637.1,152.7V179h71.2v42.8H590.1V43.4H707V86h-69.9v24.7h63.3v42H637.1z"/>
	<path class="st0" d="M846.8,129.6c15.4,8.8,23.1,22.2,23.1,40c0,16-5.6,28.6-16.8,38c-11.4,9.5-26.4,14.3-44.9,14.3h-77.5V43.4
		h72.5c18.6,0,33.3,4.5,44.3,13.6c10.9,9.1,16.4,21.4,16.4,37.1C863.8,109.1,858.1,120.9,846.8,129.6z M801.8,84.2h-24.2v28h24.2
		c4.4,0,8-1.2,10.8-3.7c2.8-2.5,4.2-5.9,4.2-10.3c0-4.2-1.4-7.6-4.2-10.2C809.8,85.5,806.2,84.2,801.8,84.2z M777.7,181h29.2
		c4.7,0,8.6-1.4,11.6-4.2c3-2.8,4.5-6.4,4.5-10.8c0-4.6-1.5-8.2-4.5-11c-3-2.7-6.8-4.1-11.6-4.1h-29.2V181z"/>
	<path class="st0" d="M1051.7,221.8H1001l-7.9-25.7h-61.2l-7.9,25.7h-51l60.7-178.4H991L1051.7,221.8z M962.4,96.2L944,156.8h37
		L962.4,96.2z"/>
	<path class="st0" d="M1166.5,133.1V43.4h46.8v178.4H1177l-64.9-89.7v89.7h-47V43.4h36.5L1166.5,133.1z"/>
	<path class="st0" d="M1333.8,130.1l60.9,91.7h-52.5l-52.8-79.8v79.8h-47V43.4h47v74.9l50.2-74.9h52.5L1333.8,130.1z"/>
	<path class="st0" d="M1408.2,221.8V43.4h47v178.4H1408.2z"/>
	<path class="st0" d="M1507.7,225.4c-7.7,0-14.2-2.6-19.6-7.8c-5.3-5.2-8-11.4-8-18.7c0-7.3,2.7-13.5,8.1-18.7
		c5.4-5.2,11.9-7.8,19.4-7.8c7.5,0,14,2.6,19.3,7.8c5.3,5.2,8,11.4,8,18.7c0,7.3-2.7,13.5-8,18.7
		C1521.7,222.8,1515.3,225.4,1507.7,225.4z"/>
	<path class="st0" d="M1651.4,130.1l60.9,91.7h-52.5L1607,142v79.8h-47V43.4h47v74.9l50.2-74.9h52.5L1651.4,130.1z"/>
	<path class="st0" d="M1801.2,119.6h92.7v18.1c0,26.2-8.5,47.4-25.5,63.7c-17,16.1-38.9,24.2-65.7,24.2c-28.5,0-52.2-8.9-70.9-26.8
		c-18.4-17.8-27.6-39.8-27.6-66c0-26,9.2-48.1,27.6-66.2c18.4-18,41.2-27,68.3-27c17,0,32.7,3.7,47,11.2
		c14.2,7.3,25.4,17.2,33.6,29.8l-39.9,22.2c-3.7-5.6-9.1-10.1-16.3-13.5c-7.2-3.4-15.2-5.1-23.9-5.1c-14.5,0-26.4,4.6-35.7,13.8
		c-9.3,9.3-13.9,21.1-13.9,35.2c0,13.9,4.6,25.6,13.7,34.9c9.3,9.5,22.2,14.3,38.9,14.3c21.4,0,35.5-7.8,42.3-23.4h-44.7V119.6z"/>
</g>
</svg>
